<?xml version="1.0" encoding="UTF-8"?>
<svg xmlns="http://www.w3.org/2000/svg" xmlns:xlink="http://www.w3.org/1999/xlink" viewBox="0 0 240 240" width="240px" height="240px">
<g id="surface68263086">
<path style=" stroke:none;fill-rule:nonzero;fill:rgb(100%,75.686276%,2.745098%);fill-opacity:1;" d="M 218.054688 100.414062 L 210 100.414062 L 210 100 L 120 100 L 120 140 L 176.515625 140 C 168.269531 163.285156 146.113281 180 120 180 C 86.863281 180 60 153.136719 60 120 C 60 86.863281 86.863281 60 120 60 C 135.292969 60 149.210938 65.769531 159.804688 75.195312 L 188.089844 46.910156 C 170.230469 30.265625 146.339844 20 120 20 C 64.773438 20 20 64.773438 20 120 C 20 175.226562 64.773438 220 120 220 C 175.226562 220 220 175.226562 220 120 C 220 113.296875 219.308594 106.75 218.054688 100.414062 Z M 218.054688 100.414062 "/>
<path style=" stroke:none;fill-rule:nonzero;fill:rgb(100%,23.921569%,0%);fill-opacity:1;" d="M 31.53125 73.453125 L 64.386719 97.550781 C 73.273438 75.539062 94.804688 60 120 60 C 135.292969 60 149.210938 65.769531 159.804688 75.195312 L 188.089844 46.910156 C 170.230469 30.265625 146.339844 20 120 20 C 81.589844 20 48.28125 41.683594 31.53125 73.453125 Z M 31.53125 73.453125 "/>
<path style=" stroke:none;fill-rule:nonzero;fill:rgb(29.803923%,68.627453%,31.37255%);fill-opacity:1;" d="M 120 220 C 145.828125 220 169.300781 210.113281 187.042969 194.039062 L 156.09375 167.851562 C 146.054688 175.453125 133.574219 180 120 180 C 93.988281 180 71.90625 163.414062 63.585938 140.269531 L 30.976562 165.394531 C 47.523438 197.78125 81.136719 220 120 220 Z M 120 220 "/>
<path style=" stroke:none;fill-rule:nonzero;fill:rgb(9.803922%,46.27451%,82.352942%);fill-opacity:1;" d="M 218.054688 100.414062 L 210 100.414062 L 210 100 L 120 100 L 120 140 L 176.515625 140 C 172.554688 151.183594 165.359375 160.828125 156.078125 167.855469 C 156.085938 167.851562 156.089844 167.851562 156.09375 167.84375 L 187.042969 194.035156 C 184.855469 196.023438 220 170 220 120 C 220 113.296875 219.308594 106.75 218.054688 100.414062 Z M 218.054688 100.414062 "/>
</g>
</svg>
